<?xml version="1.0" encoding="iso-8859-1"?>
<!-- Generator: Adobe Illustrator 18.0.0, SVG Export Plug-In . SVG Version: 6.00 Build 0)  -->
<!DOCTYPE svg PUBLIC "-//W3C//DTD SVG 1.1//EN" "http://www.w3.org/Graphics/SVG/1.1/DTD/svg11.dtd">
<svg xmlns="http://www.w3.org/2000/svg" xmlns:xlink="http://www.w3.org/1999/xlink" version="1.1" id="Capa_1" x="0px" y="0px" viewBox="0 0 483.391 483.391" style="enable-background:new 0 0 483.391 483.391;" xml:space="preserve" width="512px" height="512px">
<g>
	<path d="M421.917,33.206H61.474C27.574,33.206,0,60.778,0,94.681v241.182   c0,33.9,27.574,61.475,61.474,61.475h192.403v-48.836H82.332V82.042h339.584c6.97,0,12.639,5.666,12.639,12.639v4.284h18.416   c11.089,0,21.357,3.13,30.42,8.187V94.681C483.391,60.778,455.816,33.206,421.917,33.206z M42.16,192.129   c12.774,0,23.139,10.365,23.139,23.147c0,12.764-10.365,23.13-23.139,23.13c-12.193,0-23.146-10.143-23.146-23.13   C19.013,202.327,29.903,192.129,42.16,192.129z" fill="#412C27"/>
	<path d="M122.32,241.72c-4.499,0-8.139,3.64-8.139,8.14v65.114c0,4.498,3.64,8.139,8.139,8.139h106.726   c4.498,0,8.14-3.641,8.14-8.139v-65.114c0-4.5-3.642-8.14-8.14-8.14H122.32z" fill="#412C27"/>
	<path d="M120.492,213.232c0,4.498,3.64,8.139,8.14,8.139h125.246v-16.278H128.632   C124.132,205.093,120.492,208.733,120.492,213.232z" fill="#412C27"/>
	<path d="M120.492,180.675c0,4.498,3.64,8.139,8.14,8.139h125.246v-16.278H128.632   C124.132,172.536,120.492,176.176,120.492,180.675z" fill="#412C27"/>
	<path d="M120.492,148.118c0,4.498,3.64,8.139,8.14,8.139h125.817c0.516-5.676,1.662-11.136,3.584-16.279   H128.632C124.132,139.978,120.492,143.619,120.492,148.118z" fill="#412C27"/>
	<path d="M120.492,115.561c0,4.498,3.64,8.14,8.14,8.14h138.511c5.103-6.614,11.454-12.121,18.75-16.278   H128.632C124.132,107.422,120.492,111.062,120.492,115.561z" fill="#412C27"/>
	<path d="M452.971,131.522H316.814c-16.747,0-30.379,13.632-30.379,30.379v257.905   c0,16.747,13.632,30.379,30.379,30.379h136.158c16.747,0,30.379-13.631,30.379-30.379V161.901   C483.35,145.154,469.718,131.522,452.971,131.522z M318.992,164.079h131.801v227.725H318.992V164.079z M370.061,419.067   c0-8.194,6.637-14.831,14.815-14.831c8.211,0,14.856,6.637,14.856,14.831c0,8.187-6.645,14.84-14.856,14.84   C376.698,433.907,370.061,427.253,370.061,419.067z" fill="#412C27"/>
	<path d="M349.203,226.442h72.587c4.682,0,8.473-3.791,8.473-8.473v-17.368c0-4.682-3.792-8.473-8.473-8.473   h-72.587c-4.682,0-8.473,3.791-8.473,8.473v17.368C340.73,222.651,344.522,226.442,349.203,226.442z" fill="#412C27"/>
	<path d="M430.263,241.72H340.73c-4.5,0-8.14,3.64-8.14,8.14c0,4.498,3.64,8.139,8.14,8.139h89.532   c4.499,0,8.139-3.642,8.139-8.139C438.402,245.36,434.762,241.72,430.263,241.72z" fill="#412C27"/>
	<path d="M430.263,274.277H340.73c-4.5,0-8.14,3.64-8.14,8.139c0,4.498,3.64,8.139,8.14,8.139h89.532   c4.499,0,8.139-3.642,8.139-8.139C438.402,277.917,434.762,274.277,430.263,274.277z" fill="#412C27"/>
	<path d="M430.263,306.834H340.73c-4.5,0-8.14,3.64-8.14,8.139c0,4.498,3.64,8.139,8.14,8.139h89.532   c4.499,0,8.139-3.641,8.139-8.139C438.402,310.474,434.762,306.834,430.263,306.834z" fill="#412C27"/>
	<path d="M430.263,339.392H340.73c-4.5,0-8.14,3.64-8.14,8.139c0,4.498,3.64,8.139,8.14,8.139h89.532   c4.499,0,8.139-3.642,8.139-8.139C438.402,343.031,434.762,339.392,430.263,339.392z" fill="#412C27"/>
</g>
<g>
</g>
<g>
</g>
<g>
</g>
<g>
</g>
<g>
</g>
<g>
</g>
<g>
</g>
<g>
</g>
<g>
</g>
<g>
</g>
<g>
</g>
<g>
</g>
<g>
</g>
<g>
</g>
<g>
</g>
</svg>
